# xmcd
#
# Track frame offsets: 
#        150
#        15296
#        30555
#        45173
#        59211
#        70129
#        84638
#        95966
#        108312
#        121904
#        138189
#        150928
#        162176
#        176028
#        188647
#        201702
#        212567
#        226650
#        240504
#        252130
#
# Disc length: 3573 seconds
#
# Revision: 0
# Processed by: cddbd v1.5.2PL0 Copyright (c) Steve Scherf et al.
# Submitted via: ExactAudioCopyFreeDBPlugin 1.0
#
DISCID=030df314
DTITLE=Various Artist - Stars Of American Songbook CD2
DYEAR=1900
DGENRE=Blues
TTITLE0=Nat King Cole - Embracable You
TTITLE1=Dinah Shore - It Had To Be You
TTITLE2=Andy Williams - Unchained Melody
TTITLE3=Frank Sinatra - You Make Me Feel So Young
TTITLE4=Dean Martin - Ain't That A Kick In The Head
TTITLE5=Sarah Vaughan - I've Got The World On A String
TTITLE6=Dinah Washington - What A Difference A Day May
TTITLE7=Nat King Cole - Pretend
TTITLE8=Doris Day - The Very Thought Of You
TTITLE9=Ella Fitzgerald - A Fine Romance
TTITLE10=Bing Crosby - Easter Parade
TTITLE11=Clarence Frogman Henry - You Always Hurt The One You Love
TTITLE12=Tony Bennett - Stranger In Paradise
TTITLE13=Matt Monro - Gonna Build A Mountain
TTITLE14=Billy Eckstine - I Apologise
TTITLE15=Mel Tormé - Mountain Greenery
TTITLE16=Bob Hope - Thanks For The Memory
TTITLE17=Al Jolson - The Anniversary Song
TTITLE18=Bobby Darin - Nature Boy
TTITLE19=Johnny Mathis - Misty
EXTD=
EXTT0=
EXTT1=
EXTT2=
EXTT3=
EXTT4=
EXTT5=
EXTT6=
EXTT7=
EXTT8=
EXTT9=
EXTT10=
EXTT11=
EXTT12=
EXTT13=
EXTT14=
EXTT15=
EXTT16=
EXTT17=
EXTT18=
EXTT19=
PLAYORDER=
